<svg width="200px" height="90px" viewBox="0 0 679 167" fill="none" xmlns="http://www.w3.org/2000/svg"><path d="M106.942 103.351C106.942 91.6096 102.708 81.5437 94.2057 73.1648C85.7039 64.7076 75.5598 60.4735 63.7734 60.4735C52.0318 60.4735 41.9212 64.7076 33.4641 73.1648C24.9622 81.5437 20.6946 91.5984 20.6946 103.351C20.6946 115.093 24.9622 125.204 33.4641 133.661C41.9212 142.04 52.0318 146.229 63.7734 146.229C75.4816 146.229 85.6257 142.04 94.2057 133.661C102.708 125.204 106.942 115.093 106.942 103.351ZM106.942 164.953V146.229C94.8313 159.859 79.7157 166.685 61.6508 166.685C44.5689 166.685 29.9896 160.44 17.9575 147.961C6.00352 135.359 0.0153809 120.489 0.0153809 103.362C0.0153809 85.9119 6.21579 70.9639 18.6613 58.5184C31.185 46.0394 46.2224 39.7943 63.7064 39.7943C81.2798 39.7943 96.3172 46.0394 108.752 58.5631C121.197 70.9639 127.397 85.9119 127.397 103.407V164.964H106.942V164.953ZM241.273 164.953L194.083 117.886L183.983 128.03V164.953H163.527V0.603271H183.983V99.0389L241.273 41.7494H270.264L208.662 103.351L270.264 164.953H241.273Z" fill="white"></path><path d="M368.051 131.113C368.051 141.001 364.465 149.413 357.293 156.295C350.12 163.222 341.63 166.685 331.821 166.685C323.453 166.685 315.957 164.126 309.354 158.976C302.673 153.737 298.473 147.145 296.696 139.191L316.482 133.75C316.817 135.605 317.431 137.292 318.415 138.822C319.364 140.353 320.56 141.671 321.923 142.732C323.285 143.849 324.805 144.665 326.503 145.324C328.19 145.983 329.966 146.274 331.821 146.274C336.189 146.274 339.853 144.788 342.948 141.827C346.076 138.856 347.651 135.269 347.651 131.113C347.651 124.522 343.205 119.16 334.256 115.082C326.425 111.451 320.448 108.691 316.325 106.759C312.158 104.826 309.857 103.709 309.365 103.374C300.417 97.028 295.97 87.7106 295.97 75.5109C295.97 65.6238 299.512 57.1331 306.606 50.039C313.778 42.9113 322.314 39.3251 332.201 39.3251C340.323 39.3251 347.696 41.917 354.299 47.1566C360.89 52.3069 365.135 58.8983 366.99 66.942L347.037 72.2599C345.182 64.0597 340.233 59.9373 332.201 59.9373C328 59.9373 324.325 61.4678 321.073 64.5513C318.024 67.6012 316.493 71.2321 316.493 75.5109C316.493 82.0241 320.939 87.3419 329.888 91.4197C337.641 95.0506 343.529 97.8547 347.651 99.7874C351.774 101.765 354.086 102.96 354.656 103.374C363.605 109.809 368.051 119.037 368.051 131.113ZM506.17 103.128C506.17 91.3415 501.924 81.2421 493.389 72.8296C484.854 64.339 474.676 60.0937 462.845 60.0937C451.059 60.0937 440.914 64.339 432.424 72.8296C423.888 81.2421 419.61 91.3415 419.61 103.128C419.61 114.914 423.9 125.058 432.424 133.549C440.914 141.961 451.059 146.162 462.845 146.162C474.587 146.162 484.775 141.961 493.389 133.549C501.924 125.058 506.17 114.914 506.17 103.128ZM526.692 103.128C526.692 120.645 520.47 135.649 507.979 148.095C495.567 160.507 480.485 166.685 462.767 166.685C445.126 166.685 430.044 160.507 417.554 148.095C405.064 135.649 398.841 120.645 398.841 103.128C398.841 85.6103 405.064 70.6064 417.554 58.1162C430.122 45.5814 445.216 39.3251 462.767 39.3251C480.407 39.3251 495.489 45.5925 507.979 58.1162C520.47 70.6064 526.692 85.6103 526.692 103.128ZM611.398 20.534C602.371 20.534 594.618 23.785 588.071 30.2982C581.636 36.7667 578.429 44.4753 578.429 53.5022V61.8253H599.075V82.3481H578.429V164.942H557.907V82.3481H547.517V61.8253H557.907V53.5022C557.907 39.4033 563.303 26.9578 574.106 16.1993C584.864 5.39603 597.31 0 611.409 0V20.5228L611.398 20.534ZM657.772 62.0823V164.964H637.004V62.0823H616.481V41.3137H637.004V0.0111719H657.772V41.3137H678.418V62.0823H657.772Z" fill="#575757"></path></svg>